<svg xmlns="http://www.w3.org/2000/svg" viewBox="0 0 73 73"><defs><style>.cls-1{fill:#4864af;}.cls-2{fill:none;stroke:#24bdec;stroke-miterlimit:10;stroke-width:1.58px;stroke-dasharray:1.57 4.71;}.cls-3{fill:#fff;}</style></defs><g id="Layer_2" data-name="Layer 2"><g id="ICONS"><circle class="cls-1" cx="36.5" cy="36.5" r="36.5"/><path class="cls-2" d="M66.48,36.5a30,30,0,0,0-30-30c-39.77,1.58-39.76,58.39,0,60a30,30,0,0,0,30-30Z"/><path class="cls-3" d="M18.32,35.69a2.2,2.2,0,0,1-1.26-.31,1.66,1.66,0,0,1-.63-.86,4,4,0,0,1-.18-1.26v-2.6a4.1,4.1,0,0,1,.18-1.29,1.56,1.56,0,0,1,.63-.85,2.28,2.28,0,0,1,1.26-.3,2.29,2.29,0,0,1,1.18.26,1.37,1.37,0,0,1,.61.73,3.15,3.15,0,0,1,.18,1.11v.61H19V30.3a4.86,4.86,0,0,0,0-.56.73.73,0,0,0-.17-.4.66.66,0,0,0-.48-.15.7.7,0,0,0-.5.16.76.76,0,0,0-.21.43,3.49,3.49,0,0,0,0,.59v3.17a2.87,2.87,0,0,0,.06.65.66.66,0,0,0,.23.39.7.7,0,0,0,.46.13.58.58,0,0,0,.47-.16.73.73,0,0,0,.17-.41,3.57,3.57,0,0,0,0-.59v-.66h1.28v.59a3.71,3.71,0,0,1-.17,1.15,1.56,1.56,0,0,1-.6.78A2.18,2.18,0,0,1,18.32,35.69Z"/><path class="cls-3" d="M22.92,35.69a2.24,2.24,0,0,1-1.23-.29,1.57,1.57,0,0,1-.65-.82,3.55,3.55,0,0,1-.2-1.28V30.57a3.4,3.4,0,0,1,.2-1.26,1.59,1.59,0,0,1,.65-.81,2.89,2.89,0,0,1,2.48,0,1.66,1.66,0,0,1,.66.81,3.62,3.62,0,0,1,.2,1.26v2.74a3.66,3.66,0,0,1-.2,1.26,1.66,1.66,0,0,1-.66.83A2.33,2.33,0,0,1,22.92,35.69Zm0-1a.76.76,0,0,0,.5-.14.81.81,0,0,0,.21-.4,3.12,3.12,0,0,0,.05-.55V30.27a3,3,0,0,0-.05-.55.77.77,0,0,0-.21-.39.76.76,0,0,0-.5-.14.63.63,0,0,0-.69.53,3,3,0,0,0-.05.55v3.35a2.39,2.39,0,0,0,.05.55.68.68,0,0,0,.21.4A.74.74,0,0,0,22.92,34.71Z"/><path class="cls-3" d="M25.72,35.59l.13-7.29h1.38l1,5.05,1.08-5.05h1.33l.14,7.29h-1l-.11-5.06-1,5.06h-.8l-1.06-5.08-.1,5.08Z"/><path class="cls-3" d="M31.6,35.59l.13-7.29H33.1l1,5.05,1.08-5.05h1.33l.14,7.29h-1l-.11-5.06-1,5.06h-.8l-1-5.08-.1,5.08Z"/><path class="cls-3" d="M39.49,35.69a2.35,2.35,0,0,1-1.26-.29,1.55,1.55,0,0,1-.62-.85,4.58,4.58,0,0,1-.17-1.31V28.3h1.3v5.09a4.31,4.31,0,0,0,0,.64.92.92,0,0,0,.21.49.67.67,0,0,0,.5.18.63.63,0,0,0,.51-.18.92.92,0,0,0,.21-.49,4.26,4.26,0,0,0,0-.64V28.3h1.29v4.94a4.58,4.58,0,0,1-.17,1.31,1.6,1.6,0,0,1-.62.85A2.36,2.36,0,0,1,39.49,35.69Z"/><path class="cls-3" d="M42.32,35.59V28.3h.93L45,32.46V28.3h1.1v7.29h-.88l-1.79-4.35v4.35Z"/><path class="cls-3" d="M47,35.59V28.3H48.3v7.29Z"/><path class="cls-3" d="M49.89,35.59v-6.3H48.73v-1h3.63v1H51.22v6.3Z"/><path class="cls-3" d="M53.78,35.59V32.81L52.3,28.3h1.24l.9,2.89.85-2.89H56.5L55,32.81v2.78Z"/><path class="cls-3" d="M24.58,46.39,23.11,39.1h1.18l1,5.16.9-5.16h1.21l-1.47,7.29Z"/><path class="cls-3" d="M27.87,46.39V39.1h1.31v7.29Z"/><path class="cls-3" d="M30,46.39V39.1h1.33v6.38h1.77v.91Z"/><path class="cls-3" d="M33.52,46.39V39.1h1.33v6.38h1.77v.91Z"/><path class="cls-3" d="M36.67,46.39l1.46-7.29h1.42L41,46.39H39.78l-.29-1.68H38.22l-.3,1.68Zm1.69-2.53h1l-.5-3.06Z"/><path class="cls-3" d="M43.22,46.49a2,2,0,0,1-1.15-.3,1.79,1.79,0,0,1-.61-.87A4.41,4.41,0,0,1,41.28,44V41.54a4.5,4.5,0,0,1,.18-1.35,1.58,1.58,0,0,1,.64-.87,2.24,2.24,0,0,1,1.25-.3,2.51,2.51,0,0,1,1.19.25,1.46,1.46,0,0,1,.63.73,3,3,0,0,1,.2,1.15v.37H44.1v-.41a3.45,3.45,0,0,0-.05-.6.66.66,0,0,0-.2-.39.76.76,0,0,0-.48-.13.63.63,0,0,0-.51.18.85.85,0,0,0-.2.45,3.82,3.82,0,0,0,0,.61v3.05a2.62,2.62,0,0,0,.07.66.72.72,0,0,0,.23.42.71.71,0,0,0,.48.15.68.68,0,0,0,.5-.16,1,1,0,0,0,.24-.45,3.31,3.31,0,0,0,.07-.68v-.69h-.79v-.84h2v3.7h-.85l-.1-.72a1.37,1.37,0,0,1-.44.59A1.2,1.2,0,0,1,43.22,46.49Z"/><path class="cls-3" d="M46.15,46.39V39.1h3.06V40H47.48v2.1h1.36v.92H47.48v2.42h1.75v.91Z"/></g></g></svg>