<svg xmlns="http://www.w3.org/2000/svg" viewBox="0 0 23.48 23.3"><defs><style>.cls-1{fill:#713795;}.cls-2{fill:#fff;}</style></defs><g id="Layer_2" data-name="Layer 2"><g id="Layer_1-2" data-name="Layer 1"><path class="cls-1" d="M23.48,10.37C23.48,4.64,18.22,0,11.74,0S0,4.64,0,10.37,5.26,20.73,11.74,20.73a13.86,13.86,0,0,0,2.15-.17c1.72.34,3.81,2.29,5.49,2.72a.69.69,0,0,0,.75-1.05c-1.19-1.78-1.91-2.66-1.31-3.59A10,10,0,0,0,23.48,10.37Z"/><path class="cls-2" d="M11.54,5.4a1.89,1.89,0,0,0,.67-.12A1.49,1.49,0,0,0,13,4.55c.41-1-.82-2-1.74-1.75a1.4,1.4,0,0,0-1.12,1.84A1.41,1.41,0,0,0,11.54,5.4Z"/><path class="cls-2" d="M14.56,15.31l0-.09a.52.52,0,0,0-.65-.36l-.2.05A.54.54,0,0,1,13,14.5a12.27,12.27,0,0,1-.11-2.25c0-.95,0-1.9.08-2.85,0-.49,0-1,.08-1.47,0-.34.2-1-.09-1.27a.67.67,0,0,0-.46-.15c-.31,0-.64,0-1,.06s-.69.06-1,.12c-.53.09-1.5.1-1.43.86v.12a.65.65,0,0,0,.71.59.54.54,0,0,1,.59.56c0,1.22-.06,2.54-.06,3.63A10,10,0,0,0,10.73,16c.3.54,1,.47,1.49.4a9.32,9.32,0,0,0,1.46-.33C14.07,16,14.72,15.87,14.56,15.31Z"/></g></g></svg>