<svg xmlns="http://www.w3.org/2000/svg" viewBox="0 0 50.46 62.26"><defs><style>.cls-1{fill:#713795;}.cls-2{fill:#fff;}</style></defs><g id="Layer_2" data-name="Layer 2"><g id="ICONS"><rect class="cls-1" x="-5.89" y="20.28" width="62.24" height="21.7" rx="2.25" transform="translate(37.52 -7.01) rotate(56.88)"/><path class="cls-2" d="M11.87,16.87,18,13l.76,1.16-3.67,3.62L20,15.92,20.68,17l-6,4.1-.54-.83,4.18-2.86-4.81,1.9L13,18.67,16.73,15l-4.32,2.7Z"/><path class="cls-2" d="M14.89,21.5l6.9-2.76.78,1.19-5.31,5.2-.68-1,1.26-1.16-.7-1.07-1.57.68Zm3,0,.54.83,2.29-2.08Z"/><path class="cls-2" d="M17.51,25.51l6.1-4,.72,1.1-6.1,4Z"/><path class="cls-2" d="M18.69,27.33l6.11-4,.51.78-2.52,3.75,3.48-2.27.6.92-6.1,4-.48-.74L23,25.9l-3.65,2.38Z"/><path class="cls-2" d="M23.19,34.41a2.17,2.17,0,0,1-.38-1.06,1.64,1.64,0,0,1,.26-1,3.46,3.46,0,0,1,.88-.87l.82.83a3.63,3.63,0,0,0-.57.5,1.12,1.12,0,0,0-.28.49.62.62,0,0,0,.11.48.51.51,0,0,0,.41.28.87.87,0,0,0,.49-.15,1.38,1.38,0,0,0,.53-.61,3.08,3.08,0,0,0,.2-.82l.18-1.21a2.74,2.74,0,0,1,.28-.92,2.08,2.08,0,0,1,.73-.75,1.74,1.74,0,0,1,1.39-.3,2,2,0,0,1,1.14.89,2.1,2.1,0,0,1,.34.81,1.45,1.45,0,0,1-.07.69,1.88,1.88,0,0,1-.37.6,4,4,0,0,1-.56.52L27.94,32a5.11,5.11,0,0,0,.47-.4.84.84,0,0,0,.24-.41.61.61,0,0,0-.11-.45.58.58,0,0,0-.41-.27.69.69,0,0,0-.49.13,1.1,1.1,0,0,0-.43.46,2.79,2.79,0,0,0-.17.64l-.17,1.2A4.09,4.09,0,0,1,26.55,34a2.26,2.26,0,0,1-.86.94,1.85,1.85,0,0,1-.9.32,1.69,1.69,0,0,1-.88-.19A1.94,1.94,0,0,1,23.19,34.41Z"/><path class="cls-2" d="M25,36.93l5.29-3.45-.64-1,.82-.54,2,3.05-.82.53L31,34.6,25.68,38Z"/><path class="cls-2" d="M26.22,38.87l6.9-2.76.78,1.19-5.31,5.2-.67-1,1.25-1.16-.69-1.06-1.58.67Zm3,0,.54.83,2.29-2.09Z"/><path class="cls-2" d="M29.71,44.41a1.92,1.92,0,0,1-.36-1.13,1.6,1.6,0,0,1,.39-1,4.26,4.26,0,0,1,1-.88l2-1.34A4.87,4.87,0,0,1,34,39.49a1.66,1.66,0,0,1,1.08.06,2.89,2.89,0,0,1,1.37,2,1.41,1.41,0,0,1-.26.93,3.12,3.12,0,0,1-.85.79l-.32.2-.69-1.06.34-.23a2.5,2.5,0,0,0,.48-.37.67.67,0,0,0,.21-.37.74.74,0,0,0-.15-.48.71.71,0,0,0-.42-.33.88.88,0,0,0-.49.08,4.14,4.14,0,0,0-.53.3L31.24,42.7a2.84,2.84,0,0,0-.51.41.73.73,0,0,0-.23.43.7.7,0,0,0,.14.49.66.66,0,0,0,.4.32.83.83,0,0,0,.51,0,2.78,2.78,0,0,0,.61-.32l.57-.37L32.31,43l.7-.46,1.08,1.66-3.1,2-.47-.71.55-.48a1.39,1.39,0,0,1-.73,0A1.31,1.31,0,0,1,29.71,44.41Z"/><path class="cls-2" d="M31.4,46.81l6.1-4,1.68,2.56-.79.51-.94-1.45L35.69,45.6l.74,1.14-.77.5-.74-1.13-2,1.31,1,1.47-.77.5Z"/></g></g></svg>