<svg xmlns="http://www.w3.org/2000/svg" viewBox="0 0 22.81 22.81"><defs><style>.cls-1{fill:#d71f27;}.cls-2{fill:#fff;}</style></defs><g id="Layer_2" data-name="Layer 2"><g id="Key"><circle class="cls-1" cx="11.41" cy="11.41" r="10.69"/><path class="cls-2" d="M11.41,22.81a11.32,11.32,0,0,1-8.07-3.34A11.12,11.12,0,0,1,.9,15.85,11.4,11.4,0,0,1,.9,7,11.41,11.41,0,0,1,11.41,0a11.26,11.26,0,0,1,4.44.9,11.12,11.12,0,0,1,3.62,2.44,11.45,11.45,0,0,1,2.45,12.51,11.55,11.55,0,0,1-6.07,6.07A11.43,11.43,0,0,1,11.41,22.81Zm0-21.38a10,10,0,1,0,10,10A10,10,0,0,0,11.41,1.43Z"/><polygon class="cls-2" points="17.53 9.58 13.23 9.58 13.23 5.29 9.58 5.29 9.58 9.58 5.29 9.58 5.29 13.23 9.58 13.23 9.58 17.53 13.23 17.53 13.23 13.23 17.53 13.23 17.53 9.58"/></g></g></svg>