<svg xmlns="http://www.w3.org/2000/svg" viewBox="0 0 66 66"><defs><style>.cls-1{fill:#cd2027;}.cls-2{fill:none;stroke:#eeac1f;stroke-miterlimit:10;stroke-width:1.43px;stroke-dasharray:1.42 4.26;}.cls-3{fill:#fff;}</style></defs><g id="Layer_2" data-name="Layer 2"><g id="ICONS"><circle class="cls-1" cx="33" cy="33" r="33"/><path class="cls-2" d="M60.11,33A27.11,27.11,0,0,0,33,5.89C-3,7.32-2.95,58.68,33,60.11A27.11,27.11,0,0,0,60.11,33Z"/><path class="cls-3" d="M9.39,33.59V26.3h2.15a2,2,0,0,1,1.06.25,1.4,1.4,0,0,1,.61.7,2.92,2.92,0,0,1,.19,1.12,2.37,2.37,0,0,1-.24,1.15,1.5,1.5,0,0,1-.68.64,2.53,2.53,0,0,1-1,.19h-.72v3.24Zm1.34-4.17h.5a1.21,1.21,0,0,0,.56-.11.52.52,0,0,0,.28-.33,2,2,0,0,0,.08-.61,2.87,2.87,0,0,0-.06-.65.53.53,0,0,0-.25-.36,1.19,1.19,0,0,0-.61-.12h-.5Z"/><path class="cls-3" d="M13.11,33.59l1.46-7.29H16l1.46,7.29H16.22l-.29-1.68H14.66l-.3,1.68Zm1.68-2.53h1L15.29,28Z"/><path class="cls-3" d="M17.87,33.59V26.3h.93l1.77,4.16V26.3h1.1v7.29h-.88L19,29.24v4.35Z"/><path class="cls-3" d="M22.51,33.59V26.3h3.06v.94H23.84v2.1H25.2v.92H23.84v2.42h1.75v.91Z"/><path class="cls-3" d="M26.09,33.59V26.3h1.33v6.38h1.77v.91Z"/><path class="cls-3" d="M31.47,33.59l.13-7.29H33l1,5.05,1.08-5.05h1.33l.14,7.29h-1l-.11-5.06-1,5.06h-.8l-1-5.08-.1,5.08Z"/><path class="cls-3" d="M37,33.59l1.46-7.29h1.42l1.46,7.29H40.1l-.29-1.68H38.55l-.3,1.68Zm1.68-2.53h1L39.18,28Z"/><path class="cls-3" d="M41.76,33.59V26.3h1.33v3.21l1.44-3.21H45.8l-1.4,3.26,1.54,4H44.62L43.4,30.27l-.31.56v2.76Z"/><path class="cls-3" d="M46.23,33.59V26.3h1.32v7.29Z"/><path class="cls-3" d="M48.4,33.59V26.3h.93l1.77,4.16V26.3h1.1v7.29h-.88l-1.78-4.35v4.35Z"/><path class="cls-3" d="M54.86,33.69a1.93,1.93,0,0,1-1.14-.3,1.79,1.79,0,0,1-.61-.87,4.41,4.41,0,0,1-.18-1.33V28.74a4.5,4.5,0,0,1,.18-1.35,1.61,1.61,0,0,1,.63-.87,2.26,2.26,0,0,1,1.26-.3,2.51,2.51,0,0,1,1.19.25,1.46,1.46,0,0,1,.63.73A3,3,0,0,1,57,28.35v.37H55.74v-.41a3.54,3.54,0,0,0,0-.6.66.66,0,0,0-.2-.38.71.71,0,0,0-.48-.14.63.63,0,0,0-.51.18.78.78,0,0,0-.2.45,3.82,3.82,0,0,0,0,.61v3.05a3.23,3.23,0,0,0,.06.66.73.73,0,0,0,.24.42.69.69,0,0,0,.48.15.7.7,0,0,0,.5-.16,1,1,0,0,0,.24-.45,3.37,3.37,0,0,0,.06-.68v-.69h-.78v-.84h2v3.7H56.2l-.1-.72a1.46,1.46,0,0,1-.44.59A1.23,1.23,0,0,1,54.86,33.69Z"/><path class="cls-3" d="M21.58,44.39,20.11,37.1h1.18l1,5.16.9-5.16h1.21l-1.47,7.29Z"/><path class="cls-3" d="M24.87,44.39V37.1h1.31v7.29Z"/><path class="cls-3" d="M27,44.39V37.1h1.33v6.38h1.77v.91Z"/><path class="cls-3" d="M30.52,44.39V37.1h1.33v6.38h1.77v.91Z"/><path class="cls-3" d="M33.67,44.39l1.46-7.29h1.42L38,44.39H36.78l-.29-1.68H35.22l-.3,1.68Zm1.69-2.53h1l-.5-3.06Z"/><path class="cls-3" d="M40.21,44.49a2,2,0,0,1-1.14-.3,1.79,1.79,0,0,1-.61-.87A4.41,4.41,0,0,1,38.28,42V39.54a4.5,4.5,0,0,1,.18-1.35,1.61,1.61,0,0,1,.63-.87,2.3,2.3,0,0,1,1.26-.3,2.51,2.51,0,0,1,1.19.25,1.46,1.46,0,0,1,.63.73,3,3,0,0,1,.2,1.15v.37H41.1v-.41a3.45,3.45,0,0,0-.05-.6.73.73,0,0,0-.2-.39.76.76,0,0,0-.48-.13.63.63,0,0,0-.51.18.78.78,0,0,0-.2.45,3.82,3.82,0,0,0,0,.61v3.05a3.23,3.23,0,0,0,.06.66.79.79,0,0,0,.24.42.85.85,0,0,0,1,0,1,1,0,0,0,.24-.45,3.31,3.31,0,0,0,.07-.68v-.69h-.79v-.84h2v3.7h-.85l-.1-.72a1.37,1.37,0,0,1-.44.59A1.21,1.21,0,0,1,40.21,44.49Z"/><path class="cls-3" d="M43.15,44.39V37.1h3.06V38H44.48v2.1h1.36v.92H44.48v2.42h1.75v.91Z"/></g></g></svg>