<svg xmlns="http://www.w3.org/2000/svg" viewBox="0 0 22.24 21.7"><defs><style>.cls-1{fill:#5988b5;}.cls-2{fill:#fff;}</style></defs><g id="Layer_2" data-name="Layer 2"><g id="Key"><rect class="cls-1" width="22.24" height="21.7" rx="2.25"/><rect class="cls-2" x="11.07" y="2.45" width="0.64" height="16.41"/><path class="cls-2" d="M5.75,5A1.35,1.35,0,1,0,4.4,3.66,1.35,1.35,0,0,0,5.75,5Z"/><path class="cls-2" d="M5.55,13.59v4.73a.64.64,0,0,1-1.28,0V13.59H2.58L4.39,7.31H4.11L3,10.9A.58.58,0,1,1,2,10.52L3.14,6.63A1.78,1.78,0,0,1,4.8,5.4H6.66A1.85,1.85,0,0,1,8.34,6.63l1.18,3.89a.57.57,0,1,1-1.08.36L7.37,7.31h-.3l1.82,6.28H7.2v4.73a.64.64,0,0,1-1.27,0V13.59Z"/><path class="cls-2" d="M15.4,5.39a1.74,1.74,0,0,0-1.72,1.77v4.18a.59.59,0,1,0,1.18,0V7.52h.28v10.6a.78.78,0,1,0,1.56,0V11.91H17v6.21a.79.79,0,1,0,1.57,0V7.52h.27v3.82a.59.59,0,1,0,1.17,0V7.18a1.77,1.77,0,0,0-1.74-1.79Z"/><path class="cls-2" d="M16.83,5a1.35,1.35,0,1,0-1.36-1.35A1.36,1.36,0,0,0,16.83,5Z"/></g></g></svg>