<svg xmlns="http://www.w3.org/2000/svg" viewBox="0 0 23.24 22.7"><defs><style>.cls-1{fill:#fff;stroke:#c2c1c0;stroke-miterlimit:10;}.cls-2{fill:#4985c5;}</style></defs><g id="Layer_2" data-name="Layer 2"><g id="Key"><rect class="cls-1" x="0.5" y="0.5" width="22.24" height="21.7" rx="2.25"/><path class="cls-2" d="M16.22,11c.42-.15.83-.26,1.26-.39L19.21,10c.36-.11,1.41-.38,1.28-1-.1-.41-.48-.5-1.38-.28s-1.75.47-2.75.7c-.22,0-.91.22-1,0s.15-.23.47-.35c.48-.17,2.16-.8,2.62-1S20.13,7.57,19.94,7s-1.26-.28-1.65-.13c-.89.35-2,.8-2.91,1.12-.21.08-.42.13-.47,0s.31-.35.62-.56C16.05,7,17.19,6.3,17.68,6s.9-.75.66-1.17-.92-.25-1.49,0A19.49,19.49,0,0,0,14.93,6a22.44,22.44,0,0,1-2.39,1.46c-.39.19-1.27.55-1-.24A17.2,17.2,0,0,1,12.74,5c.24-.44.94-1.65.12-2s-1.48,1.16-1.77,1.65c-.58,1-1.1,1.93-1.65,2.9-.29.52-.64,1-.91,1.6,1.13-.17,2.06-.27,3-.33h.13c.16,0,.38,0,.61,0h0a2.66,2.66,0,0,1,1,.17,1.25,1.25,0,0,1,.83,1.08,1.45,1.45,0,0,1-.88,1.44,4.23,4.23,0,0,1-1.14.32l-.91.11-.64.07.66.25,1.33.51,1.33.49c1.21-.28,2.45-.51,3.68-.71l1.39-.21c.56-.09,1.28-.33,1.22-.79s-.45-.6-.85-.58-.9,0-1.38.11-1.05.13-1.58.18c-.19,0-.46,0-.44-.1S16.15,11,16.22,11Z"/><path class="cls-2" d="M15.21,14.88a1.3,1.3,0,0,0-.65-.5l-.28-.12A5,5,0,0,0,13.7,14c-.35-.15-.72-.28-1.08-.41l-.39-.14-1.4-.54-.65-.25-.54-.21-.09,0-.15-.07-.07,0-.07,0-.06,0-.07,0c-.16-.11-.28-.24-.27-.39s.21-.23.36-.28l.1,0c.21-.06.43-.1.64-.14l.5-.07.33,0c.38,0,.77-.08,1.15-.14l.27,0a4.12,4.12,0,0,0,.47-.13l.18-.08a.87.87,0,0,0,.42-.38.64.64,0,0,0,.07-.28v-.07s0-.05,0-.08v0l0-.05v0s0,0,0-.06h0l0-.05v0l0,0,0,0,0,0h0l-.06,0h0l-.06,0h0l-.06,0h0l-.07,0h0l-.07,0H11.52l-.88.07C9.83,9.75,9,9.86,8.2,10L8,10l-1.12.16c-.28,0-.57.09-.85.15l-.28.07-.13,0-.27.09-.25.11a2.38,2.38,0,0,0-1.12,1,3.67,3.67,0,0,0-.43,1.23,4.62,4.62,0,0,0-.07.7v.13s0,.07,0,.11v.4a2.55,2.55,0,0,0,.19.72,3.2,3.2,0,0,0,.29.51,2.23,2.23,0,0,0,.19.24,4.42,4.42,0,0,0,.53.53l.32.26.63.52c.52.43,1,.87,1.56,1.32C8,19,8.74,19.66,9.46,20.36l0,0h0l0,0v0a.1.1,0,0,1,0,0h0l0,0h0l0,0h0l.05,0h0l0,0h0l.05,0h0l.06,0h0l0,0h.08l.06,0h.47l0,0h0l0,0h0l0,0h0l0,0a.61.61,0,0,0,.06-.69.16.16,0,0,0,0-.07l-.06-.11,0-.06,0,0-.05-.06-.09-.1-.15-.16c-.06-.06-.13-.12-.19-.19-.42-.42-1-1-1.27-1.23a1,1,0,0,1-.14-.15l-.07-.09a.22.22,0,0,1,0-.08.93.93,0,0,1-.05-.1s0,0,0-.06a.08.08,0,0,1,0-.07s0,0,0,0h.12l0,0H9l0,0H9l0,0H9l0,0h0l0,0h0l0,0,0,0,0,0h0l0,0h0l0,0c.88.63,1.78,1.26,2.69,1.87l0,0h0l.05,0h0l0,0h0l.05,0h0l.06,0h0l0,0h0l.06,0h.4l.05,0h0l0,0h0l.05,0a.58.58,0,0,0,.07-.71,1.44,1.44,0,0,0-.18-.25l-.11-.12-.23-.22-.13-.1-.12-.1-.11-.1-.3-.24-.3-.24-.16-.11-.31-.24L11,17.19a3.24,3.24,0,0,1-.31-.24l-.33-.24-.16-.13a5.63,5.63,0,0,1-.45-.38l0,0h0l0,0h0v0h0s0,0,0,0h0v0h0v0h0v0h0l0,0h0v0h.23l.05,0a3.59,3.59,0,0,1,.43.19l.26.14.28.15.28.17.28.16.26.16L12,17l.37.23.35.21c.24.15.47.28.74.43l0,0h0l0,0h0l0,0h0l0,0h0l0,0h0l0,0h0l0,0h0l.05,0h0l0,0h0l0,0h0l.06,0h.07l0,0h.33l.05,0h0l0,0h0l0,0h0l0,0h0l0,0a.52.52,0,0,0,.1-.53.36.36,0,0,0,0-.09l-.1-.12-.16-.15-.1-.06-.05,0-.1-.06L14.1,17l-.1-.05-.09-.05-.08-.05c-.26-.18-.61-.39-1-.61l-.2-.12L12.43,16l-.11-.06-.21-.13-.31-.18-.21-.11-.19-.12-.28-.16L10.8,15l-.1-.07-.06,0-.06-.05-.06-.06,0-.06,0-.05v-.05a0,0,0,0,1,0,0h.45l.08,0h0l.08,0h0l.07,0h0l.08,0h0l.08,0h0l.08,0h0l.07,0h0l.07,0h0l.06,0h0l0,0,.05,0h0l.05,0,.83.31.82.29h.11l0,0h0l.06,0h0l.06,0H14l.06,0h0l.07,0h.1l0,0h.67l.07,0h0l.06,0h0a.1.1,0,0,0,.05,0h0l0-.05h0l0-.06h0a.88.88,0,0,0,.08-.34.8.8,0,0,0,0-.15A.35.35,0,0,0,15.21,14.88Z"/></g></g></svg>