<svg xmlns="http://www.w3.org/2000/svg" viewBox="0 0 68 68"><defs><style>.cls-1{fill:#fce228;}.cls-2{fill:none;stroke:#8fa03a;stroke-miterlimit:10;stroke-width:1.21px;stroke-dasharray:1.22 3.65;}</style></defs><g id="Layer_2" data-name="Layer 2"><g id="ICONS"><circle class="cls-1" cx="34" cy="34" r="34"/><path class="cls-2" d="M61.93,34A27.94,27.94,0,0,0,34,6.07C-3,7.54-3,60.46,34,61.93A27.94,27.94,0,0,0,61.93,34Z"/><path d="M13.28,34.69a2.18,2.18,0,0,1-1.1-.25,1.64,1.64,0,0,1-.66-.76,3.23,3.23,0,0,1-.26-1.21l1.15-.22a3.15,3.15,0,0,0,.1.74,1.08,1.08,0,0,0,.26.5.62.62,0,0,0,.46.18.52.52,0,0,0,.46-.2.84.84,0,0,0,.14-.49,1.28,1.28,0,0,0-.22-.78,3.18,3.18,0,0,0-.57-.61l-.92-.81A2.88,2.88,0,0,1,11.5,30a2.13,2.13,0,0,1-.23-1,1.72,1.72,0,0,1,.51-1.33,1.93,1.93,0,0,1,1.37-.47,2.13,2.13,0,0,1,.86.16,1.31,1.31,0,0,1,.54.44,1.86,1.86,0,0,1,.31.63,4.52,4.52,0,0,1,.12.75l-1.13.2a4.78,4.78,0,0,0-.08-.61.83.83,0,0,0-.21-.42.54.54,0,0,0-.43-.16.57.57,0,0,0-.46.2.76.76,0,0,0-.15.48,1.15,1.15,0,0,0,.15.61,2.69,2.69,0,0,0,.44.49l.91.8a3.84,3.84,0,0,1,.77.88,2.3,2.3,0,0,1,.32,1.23,1.89,1.89,0,0,1-.23.93,1.68,1.68,0,0,1-.64.63A1.87,1.87,0,0,1,13.28,34.69Z"/><path d="M17.6,34.69a2.2,2.2,0,0,1-1.23-.29,1.54,1.54,0,0,1-.66-.82,3.78,3.78,0,0,1-.2-1.28V29.57a3.62,3.62,0,0,1,.2-1.26,1.56,1.56,0,0,1,.66-.81,2.38,2.38,0,0,1,1.23-.28,2.46,2.46,0,0,1,1.25.28,1.59,1.59,0,0,1,.65.81,3.39,3.39,0,0,1,.21,1.26v2.74a3.43,3.43,0,0,1-.21,1.26,1.6,1.6,0,0,1-.65.83A2.36,2.36,0,0,1,17.6,34.69Zm0-1a.73.73,0,0,0,.49-.14.68.68,0,0,0,.21-.4,2.38,2.38,0,0,0,.06-.55V29.27a2.26,2.26,0,0,0-.06-.55.65.65,0,0,0-.21-.39.73.73,0,0,0-.49-.14.74.74,0,0,0-.48.14.65.65,0,0,0-.21.39,2.26,2.26,0,0,0-.06.55v3.35a3.12,3.12,0,0,0,0,.55.81.81,0,0,0,.21.4A.75.75,0,0,0,17.6,33.71Z"/><path d="M22.38,34.69a2.2,2.2,0,0,1-1.26-.31,1.66,1.66,0,0,1-.63-.86,4,4,0,0,1-.18-1.26v-2.6a4.1,4.1,0,0,1,.18-1.29,1.56,1.56,0,0,1,.63-.85,2.28,2.28,0,0,1,1.26-.3,2.29,2.29,0,0,1,1.18.26,1.37,1.37,0,0,1,.61.73,3.15,3.15,0,0,1,.18,1.11v.61H23.07V29.3a4.86,4.86,0,0,0,0-.56.73.73,0,0,0-.17-.4.63.63,0,0,0-.48-.15.7.7,0,0,0-.5.16.75.75,0,0,0-.2.43,3.42,3.42,0,0,0-.05.59v3.17a2.87,2.87,0,0,0,.06.65.63.63,0,0,0,.69.52.58.58,0,0,0,.47-.16.82.82,0,0,0,.18-.41,5.28,5.28,0,0,0,0-.59v-.66h1.28v.59a3.71,3.71,0,0,1-.17,1.15,1.51,1.51,0,0,1-.6.78A2.18,2.18,0,0,1,22.38,34.69Z"/><path d="M25,34.59V27.3h1.32v7.29Z"/><path d="M26.84,34.59,28.3,27.3h1.42l1.46,7.29H30l-.29-1.68H28.39l-.3,1.68Zm1.69-2.53h1L29,29Z"/><path d="M31.6,34.59V27.3h1.34v6.38H34.7v.91Z"/><path d="M37,34.59l.12-7.29h1.38l1,5.05L40.6,27.3h1.34l.13,7.29h-1L41,29.53l-1,5.06h-.8l-1.06-5.08L38,34.59Z"/><path d="M42.83,34.59V27.3h3.06v.94H44.16v2.1h1.36v.92H44.16v2.42H45.9v.91Z"/><path d="M46.41,34.59V27.3h1.72a3.11,3.11,0,0,1,1.39.25,1.42,1.42,0,0,1,.71.74,3.39,3.39,0,0,1,.21,1.28v2.67a3.56,3.56,0,0,1-.21,1.31,1.47,1.47,0,0,1-.7.79,3,3,0,0,1-1.35.25Zm1.33-.92h.41a1,1,0,0,0,.65-.17A.65.65,0,0,0,49,33a4.13,4.13,0,0,0,.05-.76V29.48a3.41,3.41,0,0,0-.06-.71.58.58,0,0,0-.26-.39,1.2,1.2,0,0,0-.64-.13h-.39Z"/><path d="M51.19,34.59V27.3H52.5v7.29Z"/><path d="M53,34.59l1.46-7.29h1.42l1.46,7.29H56.09l-.29-1.68H54.54l-.3,1.68Zm1.68-2.53h1L55.17,29Z"/><path d="M22.58,45.39,21.11,38.1h1.18l1,5.16.9-5.16h1.21l-1.47,7.29Z"/><path d="M25.87,45.39V38.1h1.31v7.29Z"/><path d="M28,45.39V38.1h1.33v6.38h1.77v.91Z"/><path d="M31.52,45.39V38.1h1.33v6.38h1.77v.91Z"/><path d="M34.67,45.39l1.46-7.29h1.42L39,45.39H37.78l-.29-1.68H36.22l-.3,1.68Zm1.69-2.53h1l-.5-3.06Z"/><path d="M41.21,45.49a2,2,0,0,1-1.14-.3,1.79,1.79,0,0,1-.61-.87A4.41,4.41,0,0,1,39.28,43V40.54a4.5,4.5,0,0,1,.18-1.35,1.61,1.61,0,0,1,.63-.87,2.3,2.3,0,0,1,1.26-.3,2.51,2.51,0,0,1,1.19.25,1.46,1.46,0,0,1,.63.73,3,3,0,0,1,.2,1.15v.37H42.1v-.41a3.45,3.45,0,0,0-.05-.6.73.73,0,0,0-.2-.39.76.76,0,0,0-.48-.13.63.63,0,0,0-.51.18.78.78,0,0,0-.2.45,3.82,3.82,0,0,0,0,.61v3.05a3.23,3.23,0,0,0,.06.66.79.79,0,0,0,.24.42.85.85,0,0,0,1,0,1,1,0,0,0,.24-.45,3.31,3.31,0,0,0,.07-.68v-.69h-.79v-.84h2v3.7h-.85l-.1-.72a1.37,1.37,0,0,1-.44.59A1.21,1.21,0,0,1,41.21,45.49Z"/><path d="M44.15,45.39V38.1h3.06V39H45.48v2.1h1.36v.92H45.48v2.42h1.75v.91Z"/></g></g></svg>