<svg xmlns="http://www.w3.org/2000/svg" viewBox="0 0 53 34"><defs><style>.cls-1{fill:#eeac1f;}.cls-2{fill:#fff;}</style></defs><g id="Layer_2" data-name="Layer 2"><g id="ICONS"><rect class="cls-1" width="53" height="34"/><path class="cls-2" d="M9,15.59,7.48,8.3H8.66l1,5.16.9-5.16h1.2l-1.46,7.29Z"/><path class="cls-2" d="M14.11,15.69a2.2,2.2,0,0,1-1.23-.29,1.54,1.54,0,0,1-.66-.82A3.78,3.78,0,0,1,12,13.3V10.57a3.62,3.62,0,0,1,.2-1.26,1.56,1.56,0,0,1,.66-.81,2.38,2.38,0,0,1,1.23-.28,2.46,2.46,0,0,1,1.25.28,1.59,1.59,0,0,1,.65.81,3.4,3.4,0,0,1,.2,1.26v2.74a3.44,3.44,0,0,1-.2,1.26,1.6,1.6,0,0,1-.65.83A2.36,2.36,0,0,1,14.11,15.69Zm0-1a.75.75,0,0,0,.49-.14.81.81,0,0,0,.21-.4,2.38,2.38,0,0,0,.06-.55V10.27a2.26,2.26,0,0,0-.06-.55.77.77,0,0,0-.21-.39.75.75,0,0,0-.49-.14.74.74,0,0,0-.48.14.65.65,0,0,0-.21.39,2.26,2.26,0,0,0-.06.55v3.35a3.12,3.12,0,0,0,.05.55.68.68,0,0,0,.21.4A.75.75,0,0,0,14.11,14.71Z"/><path class="cls-2" d="M16.93,15.59V8.3h1.33v6.38H20v.91Z"/><path class="cls-2" d="M22.37,15.69a2.35,2.35,0,0,1-1.26-.29,1.5,1.5,0,0,1-.62-.85,4.58,4.58,0,0,1-.17-1.31V8.3h1.3v5.09a4.31,4.31,0,0,0,0,.64.92.92,0,0,0,.21.49.65.65,0,0,0,.5.18.66.66,0,0,0,.51-.18,1.1,1.1,0,0,0,.21-.49,4.26,4.26,0,0,0,.05-.64V8.3h1.28v4.94a4.25,4.25,0,0,1-.17,1.31,1.5,1.5,0,0,1-.62.85A2.3,2.3,0,0,1,22.37,15.69Z"/><path class="cls-2" d="M25.2,15.59V8.3h.92l1.78,4.16V8.3H29v7.29h-.88l-1.78-4.35v4.35Z"/><path class="cls-2" d="M30.56,15.59V9.29H29.4v-1H33v1H31.89v6.3Z"/><path class="cls-2" d="M33.43,15.59V8.3h3.06v.94H34.76v2.1h1.36v.92H34.76v2.42h1.75v.91Z"/><path class="cls-2" d="M37,15.59V8.3h3.06v.94H38.35v2.1h1.36v.92H38.35v2.42h1.74v.91Z"/><path class="cls-2" d="M40.6,15.59V8.3h1.74a3.8,3.8,0,0,1,1.25.18,1.42,1.42,0,0,1,.77.6,2.1,2.1,0,0,1,.27,1.15,3.77,3.77,0,0,1-.08.79,1.52,1.52,0,0,1-.28.6,1.23,1.23,0,0,1-.53.38l1,3.59H43.42l-.88-3.34h-.61v3.34Zm1.33-4.17h.41a1.53,1.53,0,0,0,.62-.11.72.72,0,0,0,.33-.36,1.93,1.93,0,0,0,.09-.64,1.34,1.34,0,0,0-.2-.82.88.88,0,0,0-.77-.28h-.48Z"/><path class="cls-2" d="M12.57,26.49a2.16,2.16,0,0,1-1.25-.31,1.68,1.68,0,0,1-.64-.86,4,4,0,0,1-.18-1.26v-2.6a4.1,4.1,0,0,1,.18-1.29,1.58,1.58,0,0,1,.64-.85,2.24,2.24,0,0,1,1.25-.3,2.33,2.33,0,0,1,1.19.26,1.42,1.42,0,0,1,.61.73,3.41,3.41,0,0,1,.17,1.11v.61H13.27V21.1a4.86,4.86,0,0,0,0-.56.74.74,0,0,0-.18-.4.63.63,0,0,0-.48-.15.73.73,0,0,0-.5.16.82.82,0,0,0-.2.43,3.49,3.49,0,0,0,0,.59v3.17a2.87,2.87,0,0,0,.06.65.66.66,0,0,0,.23.39.69.69,0,0,0,.45.13.62.62,0,0,0,.48-.16.73.73,0,0,0,.17-.41,5.14,5.14,0,0,0,0-.59v-.66h1.27v.59a3.43,3.43,0,0,1-.17,1.15,1.49,1.49,0,0,1-.59.78A2.19,2.19,0,0,1,12.57,26.49Z"/><path class="cls-2" d="M15.22,26.39V19.1h1.32v3H18v-3h1.33v7.29H18V23.1H16.54v3.29Z"/><path class="cls-2" d="M20.21,26.39V19.1h3.06V20H21.54v2.1H22.9v.92H21.54v2.42h1.74v.91Z"/><path class="cls-2" d="M25.75,26.49a2.22,2.22,0,0,1-1.26-.31,1.66,1.66,0,0,1-.63-.86,4,4,0,0,1-.18-1.26v-2.6a4.1,4.1,0,0,1,.18-1.29,1.56,1.56,0,0,1,.63-.85,2.8,2.8,0,0,1,2.44,0,1.37,1.37,0,0,1,.61.73,3.15,3.15,0,0,1,.18,1.11v.61H26.44V21.1a4.86,4.86,0,0,0,0-.56.73.73,0,0,0-.17-.4.63.63,0,0,0-.48-.15.7.7,0,0,0-.5.16.75.75,0,0,0-.2.43,3.42,3.42,0,0,0,0,.59v3.17a2.87,2.87,0,0,0,.06.65.72.72,0,0,0,.23.39.74.74,0,0,0,.46.13.58.58,0,0,0,.47-.16.82.82,0,0,0,.18-.41,5.28,5.28,0,0,0,0-.59v-.66h1.28v.59a3.71,3.71,0,0,1-.17,1.15,1.46,1.46,0,0,1-.6.78A2.13,2.13,0,0,1,25.75,26.49Z"/><path class="cls-2" d="M28.38,26.39V19.1h1.33v3.21l1.44-3.21h1.27L31,22.36l1.54,4H31.24L30,23.07l-.31.56v2.76Z"/><path class="cls-2" d="M32.78,23.86V23H35v.82Z"/><path class="cls-2" d="M35.78,26.39V19.1h1.31v7.29Z"/><path class="cls-2" d="M37.94,26.39V19.1h.93l1.77,4.16V19.1h1.1v7.29h-.88L39.08,22v4.35Z"/></g></g></svg>