<svg xmlns="http://www.w3.org/2000/svg" viewBox="0 0 70 70"><defs><style>.cls-1{fill:#f37321;}.cls-2{fill:none;stroke:#eeac1f;stroke-miterlimit:10;stroke-width:1.52px;stroke-dasharray:1.5 4.51;}.cls-3{fill:#fff;}</style></defs><g id="Layer_2" data-name="Layer 2"><g id="ICONS"><circle class="cls-1" cx="35" cy="35" r="35"/><path class="cls-2" d="M63.75,35A28.75,28.75,0,0,0,35,6.25c-38.14,1.51-38.13,56,0,57.5A28.75,28.75,0,0,0,63.75,35Z"/><path class="cls-3" d="M18,35.59,16.48,28.3h1.18l1,5.16.9-5.16h1.2l-1.46,7.29Z"/><path class="cls-3" d="M23.11,35.69a2.2,2.2,0,0,1-1.23-.29,1.54,1.54,0,0,1-.66-.82A3.78,3.78,0,0,1,21,33.3V30.57a3.62,3.62,0,0,1,.2-1.26,1.56,1.56,0,0,1,.66-.81,2.38,2.38,0,0,1,1.23-.28,2.46,2.46,0,0,1,1.25.28,1.59,1.59,0,0,1,.65.81,3.4,3.4,0,0,1,.2,1.26v2.74a3.44,3.44,0,0,1-.2,1.26,1.6,1.6,0,0,1-.65.83A2.36,2.36,0,0,1,23.11,35.69Zm0-1a.75.75,0,0,0,.49-.14.81.81,0,0,0,.21-.4,2.38,2.38,0,0,0,.06-.55V30.27a2.26,2.26,0,0,0-.06-.55.77.77,0,0,0-.21-.39.75.75,0,0,0-.49-.14.74.74,0,0,0-.48.14.65.65,0,0,0-.21.39,2.26,2.26,0,0,0-.06.55v3.35a3.12,3.12,0,0,0,.05.55.68.68,0,0,0,.21.4A.75.75,0,0,0,23.11,34.71Z"/><path class="cls-3" d="M25.93,35.59V28.3h1.33v6.38H29v.91Z"/><path class="cls-3" d="M31.37,35.69a2.35,2.35,0,0,1-1.26-.29,1.5,1.5,0,0,1-.62-.85,4.58,4.58,0,0,1-.17-1.31V28.3h1.3v5.09a4.31,4.31,0,0,0,0,.64.92.92,0,0,0,.21.49.65.65,0,0,0,.5.18.66.66,0,0,0,.51-.18,1.1,1.1,0,0,0,.21-.49,4.26,4.26,0,0,0,0-.64V28.3h1.28v4.94a4.25,4.25,0,0,1-.17,1.31,1.5,1.5,0,0,1-.62.85A2.3,2.3,0,0,1,31.37,35.69Z"/><path class="cls-3" d="M34.2,35.59V28.3h.92l1.78,4.16V28.3H38v7.29h-.88l-1.78-4.35v4.35Z"/><path class="cls-3" d="M39.56,35.59v-6.3H38.4v-1H42v1H40.89v6.3Z"/><path class="cls-3" d="M42.43,35.59V28.3h3.06v.94H43.76v2.1h1.36v.92H43.76v2.42h1.75v.91Z"/><path class="cls-3" d="M46,35.59V28.3h3.06v.94H47.35v2.1h1.36v.92H47.35v2.42h1.74v.91Z"/><path class="cls-3" d="M49.6,35.59V28.3h1.74a3.8,3.8,0,0,1,1.25.18,1.42,1.42,0,0,1,.77.6,2.1,2.1,0,0,1,.27,1.15,3.77,3.77,0,0,1-.08.79,1.52,1.52,0,0,1-.28.6,1.23,1.23,0,0,1-.53.38l1,3.59H52.42l-.88-3.34h-.61v3.34Zm1.33-4.17h.41a1.53,1.53,0,0,0,.62-.11.72.72,0,0,0,.33-.36,1.93,1.93,0,0,0,.09-.64,1.34,1.34,0,0,0-.2-.82.88.88,0,0,0-.77-.28h-.48Z"/><path class="cls-3" d="M23.58,46.39,22.11,39.1h1.18l1,5.16.9-5.16h1.21l-1.47,7.29Z"/><path class="cls-3" d="M26.87,46.39V39.1h1.31v7.29Z"/><path class="cls-3" d="M29,46.39V39.1h1.33v6.38h1.77v.91Z"/><path class="cls-3" d="M32.52,46.39V39.1h1.33v6.38h1.77v.91Z"/><path class="cls-3" d="M35.67,46.39l1.46-7.29h1.42L40,46.39H38.78l-.29-1.68H37.22l-.3,1.68Zm1.69-2.53h1l-.5-3.06Z"/><path class="cls-3" d="M42.22,46.49a2,2,0,0,1-1.15-.3,1.79,1.79,0,0,1-.61-.87A4.41,4.41,0,0,1,40.28,44V41.54a4.5,4.5,0,0,1,.18-1.35,1.58,1.58,0,0,1,.64-.87,2.24,2.24,0,0,1,1.25-.3,2.51,2.51,0,0,1,1.19.25,1.46,1.46,0,0,1,.63.73,3,3,0,0,1,.2,1.15v.37H43.1v-.41a3.45,3.45,0,0,0-.05-.6.66.66,0,0,0-.2-.39.76.76,0,0,0-.48-.13.63.63,0,0,0-.51.18.85.85,0,0,0-.2.45,3.82,3.82,0,0,0,0,.61v3.05a2.62,2.62,0,0,0,.07.66.72.72,0,0,0,.23.42.71.71,0,0,0,.48.15.68.68,0,0,0,.5-.16,1,1,0,0,0,.24-.45,3.31,3.31,0,0,0,.07-.68v-.69h-.79v-.84h2v3.7h-.85l-.1-.72a1.37,1.37,0,0,1-.44.59A1.2,1.2,0,0,1,42.22,46.49Z"/><path class="cls-3" d="M45.15,46.39V39.1h3.06V40H46.48v2.1h1.36v.92H46.48v2.42h1.75v.91Z"/></g></g></svg>