<svg xmlns="http://www.w3.org/2000/svg" width="123.28" height="141" viewBox="0 0 123.28 141">
  <defs>
    <style>
      .cls-1 {
        fill: #fff;
      }

      .cls-2 {
        fill: #010101;
      }

      .cls-3, .cls-4 {
        fill: #cd2027;
      }

      .cls-3 {
        fill-rule: evenodd;
      }

      .cls-5 {
        fill: #c99631;
      }

      .cls-6 {
        fill: #989b38;
      }

      .cls-7 {
        fill: #991e20;
      }

      .cls-8 {
        fill: #25255d;
      }
    </style>
  </defs>
  <g id="Layer_2" data-name="Layer 2">
    <g id="WALKING_TRAILS" data-name="WALKING TRAILS">
      <g>
        <path class="cls-1" d="M86.39,117.6c-4.45.33-9.62.8-10.66,1.16-1.84.64-1.34,1-4.4,0a37.52,37.52,0,0,0-8.44-1l-8.25,1.6s-15,1.61-16.81,1.29-12.53-1.61-12.53-1.61l-10.08.64s-.31-7-.31-5.77v-9.3L12.42,81.81l2.49-19.16-.31-5.14V43.41l.31-4.17-.31-8-.3-9.3s0-12.83.3-14.11a4.56,4.56,0,0,1,1.84-2.24l5.81,1.6s24.44-.64,25.67-1,15.58-.64,16.8-1.28,14.67,0,16.2,0S91.65,2.56,91.65,2.56s6.69,1.4,8.52,1.08,4.59.64,5.81.32,12.57-.28,12.57-.28l-1,13.75.31,7.38L120.65,55l-1.53,19.24.61,27.9v4.49s.92,10.9-.61,12.18c-1.22,1,.61,1.29-4,.64-3-.42-6.42-1.6-8.87-1.92s-12.22-.32-13.14-.32l-1.27.06"/>
        <g>
          <path class="cls-1" d="M69.3,136.45l.7-.62.23,0a7,7,0,0,1-.75.66Z"/>
          <path class="cls-2" d="M122.21,73.27c0-2.25.58-14.47.88-17s-2.44-28.86-2.44-28.86l1.22-11.86s-1.22-9.3-.61-10.91a16.28,16.28,0,0,0,.61-4.48H121s-13.44,1-16.19,1.28S95.28-.53,92.23.12,55.86.76,55.86.76a8.06,8.06,0,0,0-5.5.32C48.43,2.09,25.61,3,25.61,3S16,1.66,14.34,1.12c-.88-.28-3.71,2.52-3.71,2.52l1.22,16-.3,34,.95,8.86L10.63,80.92l1.22,29.83.62,5.45-.31,3.2-.78,3.85,26.76.32,5.5.64,15.58-1.28,2.14-1.28,16.5.64,4.22-.51,4.31-4.18c-4.45.33-9.62.8-10.66,1.16-1.84.64-1.34,1-4.4,0a37.52,37.52,0,0,0-8.44-1l-8.25,1.6s-15,1.61-16.81,1.29-12.53-1.61-12.53-1.61l-10.08.64s-.31-7-.31-5.77v-9.3L12.42,81.81l2.49-19.16-.31-5.14V43.41l.31-4.17-.31-8-.3-9.3s0-12.83.3-14.11a4.56,4.56,0,0,1,1.84-2.24l5.81,1.6s24.44-.64,25.67-1,15.58-.64,16.8-1.28,14.67,0,16.2,0S91.65,2.56,91.65,2.56s6.69,1.4,8.52,1.08,4.59.64,5.81.32,12.57-.28,12.57-.28l-1,13.75.31,7.38L120.65,55l-1.53,19.24.61,27.9v4.49s.92,10.9-.61,12.18c-1.22,1,.61,1.29-4,.64-3-.42-6.42-1.6-8.87-1.92s-12.22-.32-13.14-.32l-1.27.06-3.74,3.9A89.25,89.25,0,0,1,99,120.37c3.06.32,18.34,3.52,19.56,2.88a23.35,23.35,0,0,0,3.7-3.33l1.07-36.87S122.21,75.51,122.21,73.27Z"/>
          <path class="cls-3" d="M11.49,141c-3.63-2.52-5.94-4.3-6.07-9.77,0,.1-1.38-.13-5.42,1.94.49-10.94,2-20.32,9.79-28.58Q3.54,81,14.71,69.76a6.5,6.5,0,0,1,7.44-1.3C14.94,69.62,11.69,84.09,15.85,99l.66-.53c.59-.45,1.18-.91,1.79-1.36C26.76,90,30,81.36,28.27,74.79c-1.38-5.27-5.64-9.05-11.2-7.67,5.41-2,9.83-.68,12.84,2.62,8.08,8.85,4.41,22.64-2.86,30.92C19.18,109.63,8.19,117.08,11.49,141Z"/>
          <path class="cls-1" d="M65.6,138.18a1.37,1.37,0,0,0,.73.8l.12,0,1.66-1.31c2.7-2.13,3.29-3.06,6.09-5.7,9.25-8.72,24.43-22.26,25.61-24.22C99.91,107.63,65.81,137,65.6,138.18Z"/>
          <path class="cls-3" d="M19.87,110.25c56.83,48.62,89,16.36,85.31,19.1-13.81,10.35-72,10.1-88.95-12.56C15.41,115.7,17.91,112.77,19.87,110.25Z"/>
          <g>
            <polygon class="cls-1" points="69.46 136.61 70.41 135.71 70.07 135.71 69.16 136.51 69.46 136.61"/>
            <path class="cls-2" d="M70.7,135.18l-.32.3-.31.31.69-.67Z"/>
            <path class="cls-2" d="M72.62,131.47c-.4.36-1,.85-1.59,1.35s-.89.68-1.37,1.09l-.07.05a4.28,4.28,0,0,1-.33.29c-.41.35-.22.18-.62.54l-1,1-.4.39c-.55.54-1.07,1.09-1.53,1.62l-.08.1a.42.42,0,0,0,0,.29l.09-.1c.51-.56,1.11-1.16,1.69-1.71l.41-.39c.35-.32.68-.67,1-1s.22-.18.62-.53l.34-.29.06-.06c.48-.41.72-.58,1.46-1.21L73,131.45a1,1,0,0,1,.49-.16.76.76,0,0,1,.27.05.21.21,0,0,1,.1.06.44.44,0,0,1,0,.09l.07-.07L99.59,108s-2.13,2.35-5.76,5.66c-4.65,4.24-17.6,16.16-19.54,17.93-.24.22-.24.39-.56.68-1.49,1.37-2.58,2.71-3.85,3.86l-.6.51,0,.05a.44.44,0,0,1,0,.1l.64-.56.59-.56.32-.31.06-.06c.45-.44.57-.62,1.21-1.26s1.1-1.1,1.5-1.47c0,0,.1-.09.15-.14,10.19-9.3,14.79-13.7,21.67-20,2.28-2.08,6.41-6.67,6.41-6.67s-4.95,3.69-7.23,5.77C87.77,117.85,83,122,72.77,131.33Z"/>
            <path class="cls-2" d="M66.61,139l.1-.07c.56-.4,1.17-.88,1.75-1.38l.89-.76v0a.28.28,0,0,1,0-.09s0-.05,0-.08L66.41,139A.27.27,0,0,0,66.61,139Z"/>
            <path class="cls-2" d="M72.51,133.36l-.41.41-.65.65.65-.65Z"/>
            <path class="cls-2" d="M67.75,137l-1.87,1.7.09.09a1.09,1.09,0,0,0,.17.13l.14.09,0,0,.11-.08.45-.37.46-.38c.32-.26.63-.53.93-.79h0l.41-.36.67-.57s0,0,0-.06a.23.23,0,0,1,0-.11.09.09,0,0,1,0-.05l-.86.74c-.06.05-.26.11-.46-.11l-.07-.07-.07-.07c-.21-.23-.12-.42-.06-.47a23.88,23.88,0,0,1,1.9-1.75c.09-.07.26-.07.44.13l.07.08.08.08c.2.22.16.37.08.45-.47.46-.73.71-1.1,1l0,.08a.37.37,0,0,1,0,.11,0,0,0,0,1,0,0l.47-.41.28-.26.31-.31.32-.3.06-.06h0l0,0,.66-.67.65-.65.41-.41c.45-.44.87-.84,1.18-1.12a.94.94,0,0,0,.19-.39v-.08a.57.57,0,0,0,0-.13s0-.08,0-.11a0,0,0,0,1,0,0h0a1.09,1.09,0,0,0-.44.27l-3,2.76c-.15.09-.48-.23-.66-.11a15.8,15.8,0,0,0-2,1.77c-.2.2,0,.47,0,.52S67.85,136.85,67.75,137Z"/>
          </g>
          <path class="cls-4" d="M68.23,135.86c-13.15-2.41-29.57-9.44-48.36-25.61-2,2.52-4.46,5.45-3.64,6.54,9.42,12.57,31.64,18.53,51.84,19.38Z"/>
          <g>
            <path class="cls-2" d="M38.38,46.69l-3.24-2.5c-4.64-.55-7.7-3.63-7.7-9.11a9.13,9.13,0,0,1,9.27-9.32c5.06,0,9.29,2.82,9.29,9.32a9,9,0,0,1-8.09,9.11l3.16,1.2c2.58,1,4.83,1.9,6.7,1.23l.19.52C44.69,48.94,41.33,49,38.38,46.69Zm3.81-11.64c0-6-2.77-8.22-5.51-8.22-2.56,0-5.45,2.11-5.45,8.22s2.71,8.15,5.48,8.15S42.19,41.08,42.19,35.05Z"/>
            <path class="cls-2" d="M49.84,36.67V29.6c0-2.17-.19-2.38-1.23-2.66l-1-.27v-.44h7.91v.44l-1,.27c-1.05.28-1.23.49-1.23,2.66v7.25c0,2.9,1.1,5.75,4.52,5.75s4.48-3.16,4.48-6.32v-3c0-5.71-.28-6.08-1.3-6.34L60,26.67v-.44h6.29v.44l-1,.27c-1,.28-1.23.62-1.23,5v3.55c0,4.62-1.41,8.75-7.15,8.75C52.16,44.27,49.84,41.16,49.84,36.67Z"/>
            <path class="cls-2" d="M68,43.4l1-.26c1.05-.28,1.23-.47,1.23-2.66V29.6c0-2.17-.18-2.38-1.23-2.66l-1-.27v-.44h7.91v.44l-1,.27c-1,.28-1.23.49-1.23,2.66V40.48c0,2.19.19,2.38,1.23,2.66l1,.26v.45H68Z"/>
            <path class="cls-2" d="M78,43.4l1-.26c1-.28,1.23-.47,1.23-2.66V29.6c0-2.17-.19-2.38-1.23-2.66l-1-.27v-.44H86.4v.44L85,27c-1.09.21-1.3.47-1.3,2.64V40c0,2.45.31,2.68,1.43,2.68h1.31c2.69,0,3.52-.36,3.94-1.48l.68-1.75.65.13-.86,4.28H78Z"/>
            <path class="cls-2" d="M94.86,43.4l1.07-.26c1.07-.26,1.25-.47,1.25-2.66V27.41H95.77c-2.92,0-3.55.49-3.75,1.48l-.32,1.62h-.6V26.23h15.66v4.28h-.6l-.31-1.62c-.21-1-.84-1.48-3.76-1.48h-1.41V40.48c0,2.19.18,2.4,1.25,2.66l1.07.26v.45H94.86Z"/>
          </g>
          <g>
            <path class="cls-2" d="M28.45,21.23l.38-.09c.29-.06.34-.12.34-.72V16.85h-.51c-.79,0-.95.14-1,.41l-.09.42h-.12V16.56h4.17v1.12h-.12l-.09-.42c-.06-.27-.22-.41-1-.41h-.51v3.57c0,.6.05.66.34.72l.38.09v.1H28.45Z"/>
            <path class="cls-2" d="M32.27,21.23l.31-.09c.29-.08.33-.12.33-.72v-3c0-.6,0-.64-.33-.72l-.31-.09v-.1h2v.1l-.31.09c-.29.08-.33.12-.33.72v1.18h2.51V17.47c0-.6,0-.64-.34-.72l-.31-.09v-.1h2v.1l-.31.09c-.29.08-.34.12-.34.72v3c0,.6,0,.64.34.72l.31.09v.1h-2v-.1l.31-.09c.29-.08.34-.12.34-.72V19H33.63v1.47c0,.6,0,.64.33.72l.31.09v.1h-2Z"/>
            <path class="cls-2" d="M38.32,21.23l.31-.09c.29-.08.33-.12.33-.72v-3c0-.6,0-.64-.33-.72l-.31-.09v-.1h3.33v.94h-.12l-.08-.31c-.07-.27-.23-.34-1-.34h-.75v1.82h.74c.65,0,.75,0,.82-.27l.08-.26h.11v1.38h-.11l-.08-.3c-.07-.24-.17-.26-.82-.26h-.74v1.35c0,.66.1.73.39.73h.54c.72,0,.93-.12,1.07-.41l.16-.32.12,0-.22,1H38.32Z"/>
            <path class="cls-2" d="M44.83,21.23l.2-.07c.27-.1.33-.18.63-.9l1.6-3.82h.35l1.53,4c.23.58.3.64.58.74l.19.07v.1h-2v-.1l.31-.09c.29-.08.36-.16.15-.72l-.3-.81H46.32l-.19.47c-.34.86-.28,1,0,1.06l.29.09v.1H44.83ZM48,19.32l-.53-1.44s-.18-.5-.2-.61h0c0,.1-.22.61-.22.61l-.57,1.44Z"/>
            <path class="cls-2" d="M50.54,21.23l.31-.09c.29-.08.33-.12.33-.72v-3c0-.6,0-.64-.33-.72l-.31-.09v-.1h2v.1l-.31.09c-.29.08-.34.12-.34.72v3c0,.6.05.64.34.72l.31.09v.1h-2Z"/>
            <path class="cls-2" d="M53.39,21.23l.31-.09c.29-.08.33-.12.33-.72v-3c0-.6,0-.64-.33-.72l-.31-.09v-.1h2.44c1.48,0,2.58.66,2.58,2.28a2.6,2.6,0,0,1-2.82,2.49h-2.2Zm2-.19a2,2,0,0,0,2.21-2.12,1.84,1.84,0,0,0-2.09-2.07h-.74v3.47c0,.66.1.72.39.72Z"/>
            <path class="cls-2" d="M59.44,21.2l-.16-1,.12,0,.17.38a1.06,1.06,0,0,0,1.06.59,1,1,0,0,0,1.07-.92c0-.49-.4-.76-.78-.94l-.47-.22a1.45,1.45,0,0,1-1-1.26A1.41,1.41,0,0,1,61,16.47a2.82,2.82,0,0,1,1.11.22v1H62l-.09-.37c-.07-.27-.33-.57-1-.57a.81.81,0,0,0-.89.78c0,.41.39.68.8.87l.46.21a1.44,1.44,0,0,1,1,1.29,1.58,1.58,0,0,1-1.73,1.53A2.86,2.86,0,0,1,59.44,21.2Z"/>
            <path class="cls-2" d="M65.44,21.23l.31-.09c.27-.08.31-.22.33-1.36l0-2.31c0-.59-.12-.64-.41-.72l-.33-.09v-.1H67l1.22,3.12a3.73,3.73,0,0,1,.23.72h0a4.51,4.51,0,0,1,.27-.72L70,16.56h1.49v.1l-.31.09c-.29.08-.34.12-.33.72l.07,3c0,.6,0,.64.33.72l.31.09v.1h-2v-.1l.31-.09c.29-.08.35-.12.34-.72l-.07-2.69v-.64h0l-.23.61-1.43,3.63h-.27l-1.44-3.55c-.08-.22-.18-.45-.23-.62h0a6.46,6.46,0,0,1,0,.65l0,1.62c0,1.47,0,1.63.35,1.71l.34.09v.1H65.44Z"/>
            <path class="cls-2" d="M72.36,21.23l.31-.09c.29-.08.34-.12.34-.72v-3c0-.6-.05-.64-.34-.72l-.31-.09v-.1h3.33v.94h-.11l-.08-.31c-.08-.27-.23-.34-1-.34h-.76v1.82h.75c.65,0,.75,0,.82-.27l.08-.26h.1v1.38h-.1l-.09-.3c-.07-.24-.16-.26-.81-.26h-.75v1.35c0,.66.1.73.39.73h.55c.72,0,.93-.12,1.07-.41l.15-.32.12,0-.21,1H72.36Z"/>
            <path class="cls-2" d="M77,21.23l.31-.09c.28-.08.32-.22.34-1.36l.05-2.31c0-.59-.12-.64-.41-.72l-.33-.09v-.1h1.61l1.22,3.12a3.73,3.73,0,0,1,.23.72h0a4.51,4.51,0,0,1,.27-.72l1.24-3.12H83v.1l-.31.09c-.29.08-.34.12-.33.72l.07,3c0,.6,0,.64.33.72l.31.09v.1h-2v-.1l.31-.09c.29-.08.35-.12.34-.72l-.07-2.69c0-.26,0-.45,0-.64h0l-.23.61L80,21.33h-.27l-1.44-3.55c-.09-.22-.18-.45-.23-.62h0a6.46,6.46,0,0,1,0,.65l0,1.62c0,1.47,0,1.63.36,1.71l.34.09v.1H77Z"/>
            <path class="cls-2" d="M83.91,19a2.46,2.46,0,0,1,2.45-2.53A2.32,2.32,0,0,1,88.82,19a2.45,2.45,0,0,1-2.46,2.48A2.27,2.27,0,0,1,83.91,19ZM88,19c0-1.63-.84-2.25-1.65-2.25s-1.63.59-1.63,2.25.81,2.2,1.64,2.2S88,20.56,88,19Z"/>
            <path class="cls-2" d="M91.12,18.86h.22c.6,0,1.19-.24,1.19-1s-.5-1.05-1.21-1.05H91v3.61c0,.6,0,.64.33.72l.31.09v.1h-2v-.1l.31-.09c.29-.08.34-.12.34-.72v-3c0-.6,0-.64-.34-.72l-.31-.09v-.1h2c.81,0,1.73.15,1.73,1.17,0,.69-.62,1.08-1.26,1.23.37.46.82,1,1.19,1.46s.58.67.77.73l.24.08v.1H93.07C92.62,20.76,91.56,19.46,91.12,18.86Z"/>
            <path class="cls-2" d="M94.88,21.23l.31-.09c.29-.08.33-.12.33-.72v-3c0-.6,0-.64-.33-.72l-.31-.09v-.1h2v.1l-.31.09c-.29.08-.33.12-.33.72v3c0,.6,0,.64.33.72l.31.09v.1h-2Z"/>
            <path class="cls-2" d="M97.51,21.23l.19-.07c.28-.1.34-.18.64-.9l1.6-3.82h.35l1.53,4c.23.58.3.64.58.74l.19.07v.1h-2v-.1l.31-.09c.29-.08.36-.16.15-.72l-.3-.81H99l-.19.47c-.34.86-.28,1,0,1.06l.29.09v.1H97.51Zm3.14-1.91-.53-1.44s-.18-.5-.2-.61h0c0,.1-.22.61-.22.61l-.57,1.44Z"/>
            <path class="cls-2" d="M103.19,21.23l.31-.09c.29-.08.34-.12.34-.72v-3c0-.6,0-.64-.34-.72l-.31-.09v-.1h2.15v.1l-.42.09c-.29.06-.36.12-.36.72v2.84c0,.66.09.73.38.73h.45c.72,0,1-.1,1.07-.41l.17-.46.15,0-.23,1.13h-3.36Z"/>
          </g>
          <g>
            <path class="cls-5" d="M41.76,77.2A3.14,3.14,0,0,1,45,73.85,2.85,2.85,0,0,1,48,76.93a3.16,3.16,0,0,1-3.24,3.33A2.82,2.82,0,0,1,41.76,77.2Zm4.7.42c0-1-.43-3.3-1.79-3.3-1,0-1.36,1.06-1.36,2.19s.4,3.3,1.72,3.3C46.11,79.81,46.46,78.74,46.46,77.62Z"/>
            <path class="cls-5" d="M48.76,79.91l.38-.11c.43-.11.51-.19.51-1.07v-4H48.8l0,0,.12-.45.77,0v-.47a3.27,3.27,0,0,1,3.13-2.92c.7,0,1.36.39,1.36,1a.79.79,0,0,1-.82.78l-.08,0a1.33,1.33,0,0,0-1.13-1c-1,0-1.07,1.11-1.07,1.83v.82l1.65-.06v.57l0,0H51.08v4c0,.88.09,1,.53,1l.62.14v.17H48.76Z"/>
            <path class="cls-5" d="M56.44,79.87l.46-.12c.49-.14.58-.22.58-1.26V73.36c0-1-.09-1.12-.58-1.26L56.44,72v-.21h4V72l-.66.13c-.52.1-.62.22-.62,1.25v4.9c0,1.15.15,1.27.68,1.27h.61c1.27,0,1.67-.18,1.86-.71l.32-.82.31.06-.41,2H56.44Z"/>
            <path class="cls-5" d="M63.62,77.2a3.15,3.15,0,0,1,3.22-3.35,2.85,2.85,0,0,1,3,3.08,3.16,3.16,0,0,1-3.24,3.33A2.82,2.82,0,0,1,63.62,77.2Zm4.71.42c0-1-.44-3.3-1.79-3.3-1,0-1.37,1.06-1.37,2.19s.41,3.3,1.73,3.3C68,79.81,68.33,78.74,68.33,77.62Z"/>
            <path class="cls-5" d="M71.12,75.47c-.32-.81-.38-1-.63-1.07l-.24-.1v-.18h3v.18l-.39.1c-.37.11-.49.29-.17,1.21l.86,2.4a4.49,4.49,0,0,1,.24.86h0a8,8,0,0,1,.26-.88l.83-2.31c.34-.94.17-1.18-.21-1.28l-.4-.1v-.18h2.22v.18l-.22.1c-.24.1-.32.26-.63,1.07l-1.77,4.68H73Z"/>
            <path class="cls-5" d="M76.73,77.19a3.08,3.08,0,0,1,2.9-3.33A2.24,2.24,0,0,1,82,76.11a1.06,1.06,0,0,1,0,.26H77.88a2.44,2.44,0,0,0,2.44,2.74,2.69,2.69,0,0,0,1.52-.48l.14.18a3.24,3.24,0,0,1-2.51,1.43A2.78,2.78,0,0,1,76.73,77.19Zm2.81-1.28c.65,0,1-.08,1-.52a1.14,1.14,0,0,0-1.21-1,1.51,1.51,0,0,0-1.45,1.52Z"/>
            <path class="cls-6" d="M41.4,92.64l.28-.11c.38-.15.48-.31.92-1.4l2.74-6.77h1.09L49,91.26c.36,1,.48,1.12.86,1.27l.29.11v.21H46.53v-.21l.52-.12c.47-.11.55-.27.21-1.26L46.82,90h-3l-.34.91c-.45,1.19-.4,1.47.11,1.61l.48.12v.21H41.4Zm5.22-3.22-.88-2.51a11.42,11.42,0,0,1-.32-1.14h0A11.08,11.08,0,0,1,45,86.92l-.95,2.5Z"/>
            <path class="cls-6" d="M50.6,89.91a3.12,3.12,0,0,1,3.07-3.25c.71,0,1.56.29,1.56,1a.75.75,0,0,1-.56.7l-.1,0a1.55,1.55,0,0,0-1.36-1c-1,0-1.41,1.06-1.41,1.94,0,1.56.81,2.68,2.08,2.68a2.19,2.19,0,0,0,1.39-.5l.15.19A3.06,3.06,0,0,1,53.16,93C51.69,93.05,50.6,91.77,50.6,89.91Z"/>
            <path class="cls-6" d="M56.74,91.18V87.56H55.9l0,0,.13-.44.81,0V85.78l1.37-.57V87l1.63-.06v.57l0,0H58.16V91c0,.73.35,1.21.94,1.21a1.59,1.59,0,0,0,.87-.3l.14.2a2.57,2.57,0,0,1-1.83.87C57.24,93,56.74,92.22,56.74,91.18Z"/>
            <path class="cls-6" d="M60.65,92.68l.39-.11c.43-.11.5-.19.5-1.07V88.36c0-.89-.07-1-.52-1.06l-.43-.1V87l2.31-.3.07.06V91.5c0,.88.07,1,.5,1.07l.39.11v.17H60.65Zm.76-8.13a.77.77,0,0,1,.86-.78.76.76,0,0,1,.86.78.79.79,0,0,1-.89.8A.76.76,0,0,1,61.41,84.55Z"/>
            <path class="cls-6" d="M65.1,88.25c-.32-.81-.38-1-.63-1.07l-.24-.1v-.19h3v.19l-.38.1c-.37.11-.49.28-.17,1.2l.86,2.4a4.36,4.36,0,0,1,.24.87h0a7.35,7.35,0,0,1,.26-.89l.83-2.3c.34-.95.17-1.19-.21-1.28l-.4-.1v-.19h2.22v.19l-.22.1c-.24.09-.32.26-.63,1.07l-1.77,4.68h-.92Z"/>
            <path class="cls-6" d="M71,92.68l.38-.11c.43-.11.5-.19.5-1.07V88.36c0-.89-.07-1-.51-1.06l-.43-.1V87l2.3-.3.07.06V91.5c0,.88.08,1,.51,1.07l.38.11v.17H71Zm.75-8.13a.77.77,0,0,1,.86-.78.75.75,0,0,1,.86.78.78.78,0,0,1-.88.8A.76.76,0,0,1,71.75,84.55Z"/>
            <path class="cls-6" d="M75.05,92.67l-.11-1.57.24,0,.18.5a1.21,1.21,0,0,0,1.23.89,1,1,0,0,0,1.1-.91c0-.7-.68-1-1.39-1.34A1.92,1.92,0,0,1,75,88.48,1.9,1.9,0,0,1,77.1,86.7a3.74,3.74,0,0,1,1.35.25v1.46H78.2l-.12-.47A1,1,0,0,0,77,87.19c-.56,0-.93.33-.93.76s.62.8,1.31,1.16c.84.42,1.44.87,1.44,1.87a2.07,2.07,0,0,1-2.25,2A3.5,3.5,0,0,1,75.05,92.67Z"/>
            <path class="cls-6" d="M79.55,92.68l.39-.11c.43-.11.5-.19.5-1.07V88.36c0-.89-.07-1-.52-1.06l-.43-.1V87l2.23-.3.07.06v.91h0a2.7,2.7,0,0,1,2-1,1.73,1.73,0,0,1,1.74,1.1h0a2.76,2.76,0,0,1,2-1.1,1.73,1.73,0,0,1,1.86,1.88v3c0,.88.08,1,.51,1.07l.38.11v.17H87.18v-.17l.35-.11c.42-.12.5-.19.5-1.07V88.84a1.16,1.16,0,0,0-1.24-1.27c-.69,0-1.13.42-1.13.79V91.5c0,.88.08,1,.51,1.07l.35.11v.17H83.38v-.17l.36-.11c.42-.12.49-.19.49-1.07V88.84A1.16,1.16,0,0,0,83,87.57c-.69,0-1.13.42-1.13.79V91.5c0,.88.07,1,.5,1.07l.36.11v.17H79.55Z"/>
            <path class="cls-7" d="M41.88,103.26a2.55,2.55,0,0,1,2.1-2.33,3.24,3.24,0,0,1-.8-1.94,2.14,2.14,0,0,1,2.39-2c1.33,0,2.13.71,2.13,1.69,0,1.17-1.18,1.77-2,2.08a38,38,0,0,0,2.78,2.9,2.33,2.33,0,0,0,.42-1.34.85.85,0,0,0-.95-.92h-.55l0-.05.12-.45,3.64-.12v.57l0,.05H49.77a1.49,1.49,0,0,1,0,.43,3.27,3.27,0,0,1-1,2.17c.23.22.44.39.64.57a2.67,2.67,0,0,0,1.06.69l.37.13v.21H48.45c-.28-.26-.46-.41-.76-.7a4.89,4.89,0,0,1-2.75.86C43.28,105.8,41.88,104.89,41.88,103.26Zm5.44,1.33a36.16,36.16,0,0,1-3.09-3.34,1.55,1.55,0,0,0-.8,1.52A2.32,2.32,0,0,0,45.86,105,2.73,2.73,0,0,0,47.32,104.59Zm-.84-5.82c0-.73-.4-1.34-1-1.34a1,1,0,0,0-1,1.14,3.07,3.07,0,0,0,.9,1.9A1.76,1.76,0,0,0,46.48,98.77Z"/>
            <path class="cls-7" d="M55.14,105.42l.45-.13c.5-.13.58-.22.58-1.25V98.9c0-1-.08-1.12-.58-1.25l-.45-.13v-.21h4v.21l-.67.14c-.52.1-.61.22-.61,1.24v4.9c0,1.16.14,1.27.67,1.27h.62c1.27,0,1.66-.17,1.86-.7l.32-.83.31.07-.41,2H55.14Z"/>
            <path class="cls-7" d="M62.32,102.73a3.06,3.06,0,0,1,2.89-3.32,2.24,2.24,0,0,1,2.33,2.25,2.09,2.09,0,0,1,0,.26H63.46a2.44,2.44,0,0,0,2.44,2.73,2.67,2.67,0,0,0,1.53-.48l.13.19a3.25,3.25,0,0,1-2.51,1.43A2.77,2.77,0,0,1,62.32,102.73Zm2.8-1.28c.66,0,1-.07,1-.52a1.14,1.14,0,0,0-1.21-1,1.51,1.51,0,0,0-1.45,1.51Z"/>
            <path class="cls-7" d="M68.21,107a1.6,1.6,0,0,1,1.21-1.4h0a1.21,1.21,0,0,1-1.17-1.13,1.73,1.73,0,0,1,.75-1.21l.48-.39a1.6,1.6,0,0,1-.79-1.47c0-1.15,1-1.94,2.41-1.94a2.66,2.66,0,0,1,1.46.38l1.52-.07v.56l0,0h-.9a1.66,1.66,0,0,1,.24.91c0,1.22-1.08,2-2.41,2a3,3,0,0,1-1.13-.2l-.29.22a.83.83,0,0,0-.34.57c0,.38.41.65,1,.65H72c1,0,1.91.44,1.91,1.67,0,1.41-1.33,2.47-3.12,2.47C69.79,108.56,68.21,108.15,68.21,107Zm4.67-.2c0-.83-.73-1.11-1.45-1.11H70.12a.92.92,0,0,0-.9,1c0,1,1,1.4,1.88,1.4S72.88,107.62,72.88,106.76Zm-.85-5.2c0-.65-.31-1.77-1.09-1.77s-.9.61-.9,1.26.29,1.77,1.08,1.77S72,102.21,72,101.56Z"/>
            <path class="cls-7" d="M74.67,104.37c0-1.51,1.52-1.83,3.32-2.19v-.8a1.19,1.19,0,0,0-1.21-1.3c-.65,0-.83.36-.83.77v.32l0,.07a1.17,1.17,0,0,1-.55.16A.34.34,0,0,1,75,101c0-.42.44-.84.77-1.06a2.91,2.91,0,0,1,1.59-.5,1.83,1.83,0,0,1,2,2.07v2.68c0,.89.1,1,.54,1.12l.46.11v.19l-2.22.12-.08,0v-.9h0a2.65,2.65,0,0,1-1.84,1A1.48,1.48,0,0,1,74.67,104.37Zm3.32-.22v-1.54c-1.38.22-1.87.63-1.87,1.34a.91.91,0,0,0,1,.91C77.65,104.86,78,104.51,78,104.15Z"/>
            <path class="cls-7" d="M81,102.68A3.12,3.12,0,0,1,84,99.43c.71,0,1.55.3,1.55,1a.73.73,0,0,1-.55.7l-.1,0a1.54,1.54,0,0,0-1.36-1c-1,0-1.41,1.06-1.41,1.93,0,1.56.81,2.69,2.08,2.69a2.19,2.19,0,0,0,1.39-.51l.15.2a3.08,3.08,0,0,1-2.26,1.43C82,105.82,81,104.54,81,102.68Z"/>
            <path class="cls-7" d="M86.79,107.69a.77.77,0,0,1,.72-.76l.07,0a.55.55,0,0,0,.53.4c.54,0,.9-.82,1.16-1.56L87.06,101c-.39-.84-.43-1-.67-1.07l-.25-.1v-.18h3v.18l-.39.1c-.37.11-.5.32-.12,1.21l.94,2.22a4.11,4.11,0,0,1,.27.85h0a6.14,6.14,0,0,1,.24-.87l.7-2.13c.33-1,.17-1.18-.21-1.28l-.4-.1v-.18h2.22v.18l-.22.1c-.25.11-.33.25-.63,1.07l-1.69,4.77c-.45,1.3-1.19,2.69-2.21,2.69A.82.82,0,0,1,86.79,107.69Z"/>
          </g>
          <g>
            <path class="cls-8" d="M27.42,64.82a1,1,0,0,1,1.09-.94l.1,0a1.66,1.66,0,0,0,1.64,1.41,2.15,2.15,0,0,0,2-2.38c0-1.88-1.46-2.46-3.12-2.46h-.88v-.87H29c1.31,0,2.63-.72,2.63-2.14a1.82,1.82,0,0,0-1.89-1.84,2.78,2.78,0,0,0-2.09.9l-.3-.29a4,4,0,0,1,3.28-1.81,2.64,2.64,0,0,1,2.86,2.42,3,3,0,0,1-2.11,2.58v0a2.72,2.72,0,0,1,2.67,2.59c0,2.38-2.29,4-4.46,4C28.72,66.09,27.42,65.78,27.42,64.82Z"/>
            <path class="cls-8" d="M36.47,64.82a1,1,0,0,1,1.11-.94l.08,0a1.65,1.65,0,0,0,1.61,1.41,2.21,2.21,0,0,0,2.06-2.4c0-1.94-1.47-2.78-3.15-2.78a5.63,5.63,0,0,0-1,.06V54.72h5.43v1.51H38.12v2.39c.2,0,.54,0,.77,0,2.09,0,4.18,1.12,4.18,3.46a4.3,4.3,0,0,1-4.41,4C37.77,66.09,36.47,65.78,36.47,64.82Z"/>
            <path class="cls-8" d="M51.29,65.55l.59-.17c.67-.18.79-.29.79-1.68v-2a2,2,0,0,0-.38-1.42L50.2,56.84c-.77-1.27-1-1.53-1.4-1.7L48.42,55v-.28h4.94V55l-.74.16c-.68.15-.71.49,0,1.68l1.79,3,1.48-2.61c.84-1.48.91-1.92.25-2.07L55.4,55v-.28h3.69V55l-.38.14c-.51.2-.71.53-1.53,1.88l-1.93,3.16a2,2,0,0,0-.38,1.38V63.7c0,1.39.12,1.5.79,1.68l.6.17v.28h-5Z"/>
            <path class="cls-8" d="M61.29,65.55l.61-.17c.66-.18.78-.29.78-1.68V56.84c0-1.37-.12-1.5-.78-1.68L61.29,55v-.28h8V57h-.35l-.2-.74c-.16-.61-.52-.77-2.37-.77H64.9v4.13h1.48c1.51,0,1.74-.05,1.91-.63l.18-.61h.3v3.31h-.3l-.2-.69c-.16-.58-.38-.62-1.89-.62H64.9v3c0,1.55.19,1.7.9,1.7h1c1.7,0,2.18-.25,2.51-.94l.36-.78.34.09-.49,2.37h-8.2Z"/>
            <path class="cls-8" d="M72.45,65.55l.38-.15c.51-.2.64-.41,1.23-1.88l3.66-9.05h1.46l3.46,9.23c.48,1.32.64,1.5,1.15,1.7l.38.15v.28H79.32v-.28l.69-.17c.62-.15.74-.36.28-1.68L79.69,62h-4l-.44,1.22c-.61,1.59-.55,2,.14,2.15l.65.17v.28H72.45Zm7-4.32-1.17-3.35a14.81,14.81,0,0,1-.43-1.52h0a11.41,11.41,0,0,1-.51,1.53L76,61.23Z"/>
            <path class="cls-8" d="M90.23,60.18h.43a2.3,2.3,0,0,0,2.6-2.42c0-1.88-1.12-2.4-2.67-2.4H90V63.7c0,1.39.11,1.5.77,1.68l.61.17v.28h-5v-.28l.61-.17c.66-.18.77-.29.77-1.68V56.84c0-1.37-.11-1.5-.77-1.68L86.39,55v-.28h5.15c2.06,0,4.07.56,4.07,2.74,0,1.7-1.43,2.52-2.78,2.8.69,1,1.79,2.47,2.57,3.44.92,1.19,1.23,1.53,1.67,1.7l.45.15v.28H94.26C93.31,64.48,91.18,61.58,90.23,60.18Z"/>
            <path class="cls-8" d="M100,65.58l-.46-2.49.35-.09.41.9a2.43,2.43,0,0,0,2.37,1.4,2.07,2.07,0,0,0,2.32-2c0-1.1-.92-1.69-1.81-2.12l-1-.49a3.38,3.38,0,0,1-2.29-3c0-2.14,1.84-3.27,3.74-3.27a7.46,7.46,0,0,1,2.65.49v2.5h-.37l-.21-1c-.13-.59-.71-1.26-2.17-1.26a1.72,1.72,0,0,0-1.91,1.63c0,1,1,1.53,1.87,2l1,.48a3.53,3.53,0,0,1,2.3,3.1c0,2.48-2,3.72-4.18,3.72A7.13,7.13,0,0,1,100,65.58Z"/>
          </g>
        </g>
      </g>
    </g>
  </g>
</svg>
